<svg width="91" height="20" viewBox="0 0 91 20" fill="none" xmlns="http://www.w3.org/2000/svg">
<path d="M7.00002 15.18C5.60002 15.18 4.37335 14.88 3.32002 14.28C2.28002 13.68 1.48002 12.8333 0.920017 11.74C0.360017 10.6333 0.0800171 9.33996 0.0800171 7.85995C0.0800171 6.39329 0.360017 5.11329 0.920017 4.01996C1.48002 2.91329 2.28002 2.06662 3.32002 1.47996C4.37335 0.879956 5.60002 0.579956 7.00002 0.579956C7.96002 0.579956 8.86002 0.733288 9.70002 1.03996C10.5534 1.33329 11.26 1.74662 11.82 2.27995L10.98 4.15996C10.34 3.63996 9.70002 3.26662 9.06002 3.03996C8.43335 2.79996 7.76002 2.67995 7.04002 2.67995C5.66668 2.67995 4.60002 3.12662 3.84002 4.01996C3.09335 4.91329 2.72002 6.19329 2.72002 7.85995C2.72002 9.53996 3.09335 10.8333 3.84002 11.74C4.58668 12.6333 5.65335 13.08 7.04002 13.08C7.76002 13.08 8.43335 12.9666 9.06002 12.74C9.70002 12.5 10.34 12.12 10.98 11.6L11.82 13.48C11.26 14.0133 10.5534 14.4333 9.70002 14.74C8.86002 15.0333 7.96002 15.18 7.00002 15.18Z" fill="white"/>
<path d="M18.4361 15.16C17.4094 15.16 16.5028 14.9466 15.7161 14.52C14.9428 14.0933 14.3428 13.4866 13.9161 12.7C13.5028 11.9 13.2961 10.9666 13.2961 9.89995C13.2961 8.83329 13.5028 7.90662 13.9161 7.11996C14.3428 6.31995 14.9428 5.70662 15.7161 5.27995C16.5028 4.85329 17.4094 4.63996 18.4361 4.63996C19.4494 4.63996 20.3428 4.85329 21.1161 5.27995C21.8894 5.70662 22.4828 6.31995 22.8961 7.11996C23.3228 7.90662 23.5361 8.83329 23.5361 9.89995C23.5361 10.9666 23.3228 11.9 22.8961 12.7C22.4828 13.4866 21.8894 14.0933 21.1161 14.52C20.3428 14.9466 19.4494 15.16 18.4361 15.16ZM18.4161 13.2C19.2694 13.2 19.9161 12.9266 20.3561 12.38C20.8094 11.82 21.0361 10.9933 21.0361 9.89995C21.0361 8.81995 20.8094 7.99995 20.3561 7.43995C19.9028 6.86662 19.2628 6.57996 18.4361 6.57996C17.5961 6.57996 16.9494 6.86662 16.4961 7.43995C16.0428 7.99995 15.8161 8.81995 15.8161 9.89995C15.8161 10.9933 16.0361 11.82 16.4761 12.38C16.9294 12.9266 17.5761 13.2 18.4161 13.2Z" fill="white"/>
<path d="M37.612 4.63996C38.7587 4.63996 39.612 4.98662 40.172 5.67996C40.732 6.35996 41.012 7.39996 41.012 8.79996V15H38.512V8.87996C38.512 8.07996 38.3787 7.50662 38.112 7.15996C37.8587 6.79996 37.432 6.61996 36.832 6.61996C36.1387 6.61996 35.592 6.86662 35.192 7.35995C34.8054 7.83995 34.612 8.50662 34.612 9.35996V15H32.112V8.87996C32.112 8.09329 31.972 7.51996 31.692 7.15996C31.4254 6.79996 30.9987 6.61996 30.412 6.61996C29.7187 6.61996 29.172 6.86662 28.772 7.35995C28.372 7.83995 28.172 8.50662 28.172 9.35996V15H25.692V7.75996C25.692 6.69329 25.6387 5.73996 25.532 4.89996H27.872L28.052 6.49996C28.3454 5.89996 28.7654 5.43995 29.312 5.11996C29.872 4.79996 30.5121 4.63996 31.232 4.63996C32.7787 4.63996 33.7854 5.27996 34.252 6.55996C34.572 5.95996 35.0254 5.49329 35.612 5.15996C36.212 4.81329 36.8787 4.63996 37.612 4.63996Z" fill="white"/>
<path d="M49.4403 4.63996C50.307 4.63996 51.0737 4.86662 51.7403 5.31996C52.4203 5.75996 52.947 6.38662 53.3203 7.19995C53.707 7.99996 53.9003 8.91996 53.9003 9.95996C53.9003 11 53.7137 11.9133 53.3403 12.7C52.967 13.4866 52.4403 14.0933 51.7603 14.52C51.0937 14.9466 50.3203 15.16 49.4403 15.16C48.707 15.16 48.0537 15.0066 47.4803 14.7C46.907 14.38 46.467 13.94 46.1603 13.38V19.32H43.6803V7.75996C43.6803 6.69329 43.627 5.73996 43.5203 4.89996H45.8603L46.0603 6.63996C46.327 6.01329 46.7603 5.52662 47.3603 5.17996C47.9603 4.81996 48.6537 4.63996 49.4403 4.63996ZM48.7603 13.2C49.6003 13.2 50.247 12.92 50.7003 12.36C51.1537 11.8 51.3803 11 51.3803 9.95996C51.3803 8.90662 51.1537 8.08662 50.7003 7.49996C50.247 6.89996 49.607 6.59996 48.7803 6.59996C47.927 6.59996 47.2737 6.88662 46.8203 7.45996C46.367 8.03329 46.1403 8.85329 46.1403 9.91995C46.1403 10.9733 46.367 11.7866 46.8203 12.36C47.2737 12.92 47.9203 13.2 48.7603 13.2Z" fill="white"/>
<path d="M65.7427 4.89996V15H63.2827V13.38C62.976 13.94 62.536 14.38 61.9627 14.7C61.3893 15.0066 60.736 15.16 60.0027 15.16C59.1227 15.16 58.3427 14.9466 57.6627 14.52C56.9827 14.0933 56.456 13.4866 56.0827 12.7C55.7093 11.9133 55.5227 11 55.5227 9.95996C55.5227 8.91996 55.7093 7.99996 56.0827 7.19995C56.4693 6.38662 57.0027 5.75996 57.6827 5.31996C58.3627 4.86662 59.136 4.63996 60.0027 4.63996C60.736 4.63996 61.3893 4.79996 61.9627 5.11996C62.536 5.42662 62.976 5.85996 63.2827 6.41996V4.89996H65.7427ZM60.6827 13.2C61.5093 13.2 62.1493 12.9133 62.6027 12.34C63.056 11.7666 63.2827 10.96 63.2827 9.91995C63.2827 8.85329 63.056 8.03329 62.6027 7.45996C62.1493 6.88662 61.5027 6.59996 60.6627 6.59996C59.836 6.59996 59.1893 6.89996 58.7227 7.49996C58.2693 8.08662 58.0427 8.90662 58.0427 9.95996C58.0427 11 58.2693 11.8 58.7227 12.36C59.1893 12.92 59.8427 13.2 60.6827 13.2Z" fill="white"/>
<path d="M74.2455 4.63996C76.6588 4.63996 77.8655 6.02662 77.8655 8.79996V15H75.3655V8.91996C75.3655 8.11996 75.2122 7.53996 74.9055 7.17996C74.5988 6.80662 74.1255 6.61996 73.4855 6.61996C72.7255 6.61996 72.1122 6.86662 71.6455 7.35995C71.1788 7.83995 70.9455 8.47995 70.9455 9.27995V15H68.4655V7.75996C68.4655 6.69329 68.4121 5.73996 68.3055 4.89996H70.6455L70.8255 6.55996C71.1721 5.94662 71.6388 5.47329 72.2255 5.13996C72.8255 4.80662 73.4988 4.63996 74.2455 4.63996Z" fill="white"/>
<path d="M90.0763 4.89996L85.3763 15.68C84.8429 16.9333 84.1629 17.8466 83.3363 18.42C82.5096 18.9933 81.4896 19.3733 80.2763 19.56L79.7163 17.64C80.6629 17.4266 81.3696 17.1533 81.8363 16.82C82.3163 16.5 82.7029 16.02 82.9963 15.38L83.3163 14.64L79.1163 4.89996H81.7363L84.6363 12.16L87.5963 4.89996H90.0763Z" fill="white"/>
</svg>
