<svg width="182" height="22" viewBox="0 0 182 22" fill="none" xmlns="http://www.w3.org/2000/svg">
<path d="M0.69397 1.33599H11.166V3.57998H3.46597V7.91398H10.704V10.158H3.46597V14.756H11.166V17H0.69397V1.33599Z" fill="white"/>
<path d="M24.206 0.807983V17H21.5V15.218C21.1626 15.834 20.6786 16.318 20.048 16.67C19.4173 17.0073 18.6986 17.176 17.892 17.176C16.9386 17.176 16.088 16.934 15.34 16.45C14.592 15.966 14.0053 15.284 13.58 14.404C13.1693 13.5093 12.964 12.49 12.964 11.346C12.964 10.202 13.1693 9.19732 13.58 8.33198C13.9906 7.46665 14.57 6.79932 15.318 6.32998C16.066 5.84598 16.924 5.60398 17.892 5.60398C18.684 5.60398 19.388 5.77265 20.004 6.10998C20.6346 6.43265 21.1186 6.89465 21.456 7.49599V0.807983H24.206ZM18.618 15.02C19.5273 15.02 20.2313 14.7047 20.73 14.074C21.2433 13.4433 21.5 12.5487 21.5 11.39C21.5 10.2313 21.2506 9.33665 20.752 8.70598C20.2533 8.07532 19.5493 7.75998 18.64 7.75998C17.716 7.75998 16.9973 8.07532 16.484 8.70598C15.9853 9.32198 15.736 10.202 15.736 11.346C15.736 12.5047 15.9853 13.4067 16.484 14.052C16.9973 14.6973 17.7086 15.02 18.618 15.02Z" fill="white"/>
<path d="M44.889 5.88998L40.533 17H38.135L35.385 9.71798L32.701 17H30.281L25.925 5.88998H28.741L31.601 13.722L34.483 5.88998H36.463L39.345 13.788L42.205 5.88998H44.889Z" fill="white"/>
<path d="M57.0556 5.88998V17H54.3496V15.218C54.0122 15.834 53.5282 16.318 52.8976 16.67C52.2669 17.0073 51.5482 17.176 50.7416 17.176C49.7736 17.176 48.9156 16.9413 48.1676 16.472C47.4196 16.0027 46.8402 15.3353 46.4296 14.47C46.0189 13.6047 45.8136 12.6 45.8136 11.456C45.8136 10.312 46.0189 9.29998 46.4296 8.41998C46.8549 7.52532 47.4416 6.83598 48.1896 6.35198C48.9376 5.85332 49.7882 5.60398 50.7416 5.60398C51.5482 5.60398 52.2669 5.77998 52.8976 6.13198C53.5282 6.46932 54.0122 6.94598 54.3496 7.56199V5.88998H57.0556ZM51.4896 15.02C52.3989 15.02 53.1029 14.7047 53.6016 14.074C54.1002 13.4433 54.3496 12.556 54.3496 11.412C54.3496 10.2387 54.1002 9.33665 53.6016 8.70598C53.1029 8.07532 52.3916 7.75998 51.4676 7.75998C50.5582 7.75998 49.8469 8.08998 49.3336 8.74998C48.8349 9.39532 48.5856 10.2973 48.5856 11.456C48.5856 12.6 48.8349 13.48 49.3336 14.096C49.8469 14.712 50.5656 15.02 51.4896 15.02Z" fill="white"/>
<path d="M66.0347 5.62598C66.46 5.62598 66.8267 5.68465 67.1347 5.80198L67.1127 8.30998C66.6433 8.11932 66.1593 8.02398 65.6607 8.02398C64.722 8.02398 64.0033 8.29532 63.5047 8.83798C63.0207 9.38065 62.7787 10.0993 62.7787 10.994V17H60.0507V9.03598C60.0507 7.86265 59.992 6.81398 59.8747 5.88998H62.4487L62.6687 7.84798C62.9473 7.12932 63.3873 6.57932 63.9887 6.19798C64.59 5.81665 65.272 5.62598 66.0347 5.62598Z" fill="white"/>
<path d="M79.077 0.807983V17H76.371V15.218C76.0337 15.834 75.5497 16.318 74.919 16.67C74.2884 17.0073 73.5697 17.176 72.763 17.176C71.8097 17.176 70.959 16.934 70.211 16.45C69.463 15.966 68.8764 15.284 68.451 14.404C68.0404 13.5093 67.835 12.49 67.835 11.346C67.835 10.202 68.0404 9.19732 68.451 8.33198C68.8617 7.46665 69.441 6.79932 70.189 6.32998C70.937 5.84598 71.795 5.60398 72.763 5.60398C73.555 5.60398 74.259 5.77265 74.875 6.10998C75.5057 6.43265 75.9897 6.89465 76.327 7.49599V0.807983H79.077ZM73.4891 15.02C74.3984 15.02 75.1024 14.7047 75.6011 14.074C76.1144 13.4433 76.371 12.5487 76.371 11.39C76.371 10.2313 76.1217 9.33665 75.623 8.70598C75.1244 8.07532 74.4204 7.75998 73.511 7.75998C72.587 7.75998 71.8684 8.07532 71.355 8.70598C70.8564 9.32198 70.607 10.202 70.607 11.346C70.607 12.5047 70.8564 13.4067 71.355 14.052C71.8684 14.6973 72.5797 15.02 73.4891 15.02Z" fill="white"/>
<path d="M101.507 1.33599V17H99.3952L90.9473 6.02198V17H88.3073V1.33599H90.4193L98.8453 12.292V1.33599H101.507Z" fill="white"/>
<path d="M114.441 11.588H106.785C106.843 12.776 107.137 13.656 107.665 14.228C108.207 14.7853 109.007 15.064 110.063 15.064C111.28 15.064 112.409 14.668 113.451 13.876L114.243 15.768C113.715 16.1933 113.062 16.538 112.285 16.802C111.522 17.0513 110.745 17.176 109.953 17.176C108.134 17.176 106.704 16.6627 105.663 15.636C104.621 14.6093 104.101 13.2013 104.101 11.412C104.101 10.2827 104.328 9.27798 104.783 8.39798C105.237 7.51798 105.875 6.83598 106.697 6.35198C107.518 5.85332 108.449 5.60398 109.491 5.60398C111.016 5.60398 112.219 6.10265 113.099 7.09999C113.993 8.08265 114.441 9.43932 114.441 11.17V11.588ZM109.557 7.58398C108.823 7.58398 108.222 7.80398 107.753 8.24398C107.298 8.66932 107.005 9.29265 106.873 10.114H112.043C111.955 9.27799 111.698 8.64732 111.273 8.22198C110.862 7.79665 110.29 7.58398 109.557 7.58398Z" fill="white"/>
<path d="M134.264 5.88998L129.908 17H127.51L124.76 9.71798L122.076 17H119.656L115.3 5.88998H118.116L120.976 13.722L123.858 5.88998H125.838L128.72 13.788L131.58 5.88998H134.264Z" fill="white"/>
<path d="M146.541 5.88998V16.648C146.541 18.3787 146.064 19.6913 145.111 20.586C144.157 21.4806 142.757 21.928 140.909 21.928C139.193 21.928 137.682 21.5686 136.377 20.85L136.817 18.76C138.166 19.464 139.508 19.816 140.843 19.816C142.823 19.816 143.813 18.8333 143.813 16.868V14.668C143.475 15.2693 142.984 15.7607 142.339 16.142C141.693 16.5087 140.967 16.692 140.161 16.692C139.193 16.692 138.327 16.4647 137.565 16.01C136.817 15.5407 136.23 14.888 135.805 14.052C135.394 13.2013 135.189 12.2333 135.189 11.148C135.189 10.0627 135.394 9.10198 135.805 8.26598C136.23 7.41532 136.817 6.76265 137.565 6.30798C138.327 5.83865 139.193 5.60398 140.161 5.60398C140.982 5.60398 141.708 5.77998 142.339 6.13198C142.984 6.46932 143.475 6.94598 143.813 7.56199V5.88998H146.541ZM140.887 14.536C141.796 14.536 142.507 14.2353 143.021 13.634C143.549 13.0326 143.813 12.204 143.813 11.148C143.813 10.092 143.556 9.26332 143.043 8.66199C142.529 8.06065 141.811 7.75998 140.887 7.75998C139.977 7.75998 139.259 8.06065 138.731 8.66199C138.217 9.26332 137.961 10.092 137.961 11.148C137.961 12.204 138.217 13.0326 138.731 13.634C139.259 14.2353 139.977 14.536 140.887 14.536Z" fill="white"/>
<path d="M160.138 5.88998V17H157.432V15.218C157.094 15.834 156.61 16.318 155.98 16.67C155.349 17.0073 154.63 17.176 153.824 17.176C152.856 17.176 151.998 16.9413 151.25 16.472C150.502 16.0027 149.922 15.3353 149.512 14.47C149.101 13.6047 148.896 12.6 148.896 11.456C148.896 10.312 149.101 9.29998 149.512 8.41998C149.937 7.52532 150.524 6.83598 151.272 6.35198C152.02 5.85332 152.87 5.60398 153.824 5.60398C154.63 5.60398 155.349 5.77998 155.98 6.13198C156.61 6.46932 157.094 6.94598 157.432 7.56199V5.88998H160.138ZM154.572 15.02C155.481 15.02 156.185 14.7047 156.684 14.074C157.182 13.4433 157.432 12.556 157.432 11.412C157.432 10.2387 157.182 9.33665 156.684 8.70598C156.185 8.07532 155.474 7.75998 154.55 7.75998C153.64 7.75998 152.929 8.08998 152.416 8.74998C151.917 9.39532 151.668 10.2973 151.668 11.456C151.668 12.6 151.917 13.48 152.416 14.096C152.929 14.712 153.648 15.02 154.572 15.02Z" fill="white"/>
<path d="M166.631 7.95798V12.93C166.631 14.2353 167.239 14.888 168.457 14.888C168.794 14.888 169.161 14.8293 169.557 14.712V16.89C169.073 17.066 168.486 17.154 167.797 17.154C166.535 17.154 165.567 16.802 164.893 16.098C164.218 15.394 163.881 14.382 163.881 13.062V7.95798H161.747V5.88998H163.881V3.18398L166.631 2.25998V5.88998H169.579V7.95798H166.631Z" fill="white"/>
<path d="M181.193 11.588H173.537C173.595 12.776 173.889 13.656 174.417 14.228C174.959 14.7853 175.759 15.064 176.815 15.064C178.032 15.064 179.161 14.668 180.203 13.876L180.995 15.768C180.467 16.1933 179.814 16.538 179.037 16.802C178.274 17.0513 177.497 17.176 176.705 17.176C174.886 17.176 173.456 16.6627 172.415 15.636C171.373 14.6093 170.853 13.2013 170.853 11.412C170.853 10.2827 171.08 9.27798 171.535 8.39798C171.989 7.51798 172.627 6.83598 173.449 6.35198C174.27 5.85332 175.201 5.60398 176.243 5.60398C177.768 5.60398 178.971 6.10265 179.851 7.09999C180.745 8.08265 181.193 9.43932 181.193 11.17V11.588ZM176.309 7.58398C175.575 7.58398 174.974 7.80398 174.505 8.24398C174.05 8.66932 173.757 9.29265 173.625 10.114H178.795C178.707 9.27799 178.45 8.64732 178.025 8.22198C177.614 7.79665 177.042 7.58398 176.309 7.58398Z" fill="white"/>
</svg>
