<svg width="118" height="15" viewBox="0 0 118 15" fill="none" xmlns="http://www.w3.org/2000/svg">
<path d="M0.583984 14V1.18402H8.50398V2.42602H2.04198V6.87201H8.14398V8.11402H2.04198V14H0.583984Z" fill="white" fill-opacity="0.85"/>
<path d="M14.1148 14.126C13.2508 14.126 12.4948 13.934 11.8468 13.55C11.2108 13.166 10.7128 12.626 10.3528 11.93C10.0048 11.222 9.83078 10.388 9.83078 9.42801C9.83078 8.48001 10.0048 7.65202 10.3528 6.94402C10.7128 6.23602 11.2108 5.69001 11.8468 5.30602C12.4948 4.92201 13.2508 4.73001 14.1148 4.73001C14.9788 4.73001 15.7288 4.92201 16.3648 5.30602C17.0128 5.69001 17.5108 6.23602 17.8588 6.94402C18.2188 7.65202 18.3988 8.48001 18.3988 9.42801C18.3988 10.388 18.2188 11.222 17.8588 11.93C17.5108 12.626 17.0128 13.166 16.3648 13.55C15.7288 13.934 14.9788 14.126 14.1148 14.126ZM14.1148 12.92C15.0028 12.92 15.6868 12.626 16.1668 12.038C16.6588 11.438 16.9048 10.568 16.9048 9.42801C16.9048 8.31201 16.6588 7.45402 16.1668 6.85402C15.6748 6.25401 14.9908 5.95401 14.1148 5.95401C13.2388 5.95401 12.5488 6.25401 12.0448 6.85402C11.5528 7.45402 11.3068 8.31201 11.3068 9.42801C11.3068 10.568 11.5468 11.438 12.0268 12.038C12.5188 12.626 13.2148 12.92 14.1148 12.92Z" fill="white" fill-opacity="0.85"/>
<path d="M23.8756 14.126C22.7956 14.126 21.9796 13.826 21.4276 13.226C20.8876 12.626 20.6176 11.738 20.6176 10.562V4.94601H22.0756V10.526C22.0756 11.342 22.2436 11.942 22.5796 12.326C22.9156 12.71 23.4256 12.902 24.1096 12.902C24.9136 12.902 25.5616 12.644 26.0536 12.128C26.5456 11.612 26.7916 10.922 26.7916 10.058V4.94601H28.2496V14H26.8276V12.038L27.0436 11.93C26.8036 12.65 26.3956 13.196 25.8196 13.568C25.2556 13.94 24.6076 14.126 23.8756 14.126Z" fill="white" fill-opacity="0.85"/>
<path d="M31.0602 14V7.48401C31.0602 7.06401 31.0482 6.64401 31.0242 6.22401C31.0122 5.79201 30.9762 5.36601 30.9162 4.94601H32.3022L32.4642 6.81801L32.2842 6.96202C32.5362 6.23002 32.9562 5.67801 33.5442 5.30602C34.1322 4.92201 34.8102 4.73001 35.5782 4.73001C37.7502 4.73001 38.8362 5.92402 38.8362 8.31202V14H37.3782V8.38402C37.3782 7.54402 37.2102 6.93202 36.8742 6.54802C36.5382 6.15202 36.0102 5.95401 35.2902 5.95401C34.4502 5.95401 33.7782 6.21202 33.2742 6.72802C32.7702 7.24402 32.5182 7.94001 32.5182 8.81602V14H31.0602Z" fill="white" fill-opacity="0.85"/>
<path d="M49.5635 14H48.1235V11.57L48.3395 11.768C48.1355 12.524 47.7455 13.106 47.1695 13.514C46.5935 13.922 45.8915 14.126 45.0635 14.126C44.2715 14.126 43.5695 13.934 42.9575 13.55C42.3575 13.154 41.8895 12.602 41.5535 11.894C41.2175 11.174 41.0495 10.34 41.0495 9.39202C41.0495 8.44402 41.2115 7.62202 41.5355 6.92602C41.8715 6.23002 42.3395 5.69001 42.9395 5.30602C43.5515 4.92201 44.2595 4.73001 45.0635 4.73001C45.8915 4.73001 46.5935 4.94002 47.1695 5.36002C47.7455 5.76802 48.1355 6.34401 48.3395 7.08801L48.1055 7.26801V0.752014H49.5635V14ZM45.3515 12.92C46.2275 12.92 46.9055 12.62 47.3855 12.02C47.8775 11.408 48.1235 10.544 48.1235 9.42801C48.1235 8.32401 47.8835 7.47202 47.4035 6.87201C46.9235 6.26002 46.2395 5.95401 45.3515 5.95401C44.4635 5.95401 43.7675 6.25401 43.2635 6.85402C42.7715 7.45402 42.5255 8.30002 42.5255 9.39202C42.5255 10.508 42.7715 11.378 43.2635 12.002C43.7675 12.614 44.4635 12.92 45.3515 12.92Z" fill="white" fill-opacity="0.85"/>
<path d="M59.7985 12.92C59.4025 13.292 58.8925 13.586 58.2685 13.802C57.6565 14.018 57.0265 14.126 56.3785 14.126C55.4425 14.126 54.6325 13.94 53.9485 13.568C53.2765 13.196 52.7545 12.662 52.3825 11.966C52.0225 11.258 51.8425 10.418 51.8425 9.44601C51.8425 8.51001 52.0225 7.68801 52.3825 6.98001C52.7425 6.27201 53.2405 5.72001 53.8765 5.32401C54.5245 4.92801 55.2685 4.73001 56.1085 4.73001C56.9125 4.73001 57.6025 4.91002 58.1785 5.27002C58.7545 5.61802 59.1925 6.12201 59.4925 6.78201C59.8045 7.44201 59.9605 8.23401 59.9605 9.15801V9.42801H53.1205V8.47401H59.1325L58.6645 9.14001C58.6885 8.08401 58.4785 7.27401 58.0345 6.71001C57.6025 6.14601 56.9665 5.86402 56.1265 5.86402C55.2505 5.86402 54.5605 6.17601 54.0565 6.80001C53.5645 7.41201 53.3185 8.26401 53.3185 9.35601C53.3185 10.532 53.5765 11.42 54.0925 12.02C54.6205 12.62 55.3885 12.92 56.3965 12.92C56.9245 12.92 57.4285 12.836 57.9085 12.668C58.4005 12.488 58.8685 12.218 59.3125 11.858L59.7985 12.92Z" fill="white" fill-opacity="0.85"/>
<path d="M62.1735 14V7.48401C62.1735 7.06401 62.1615 6.64401 62.1375 6.22401C62.1255 5.79201 62.0895 5.36601 62.0295 4.94601H63.4155L63.6135 7.17801L63.4155 7.12401C63.5835 6.33201 63.9435 5.73801 64.4955 5.34201C65.0595 4.93401 65.6895 4.73001 66.3855 4.73001C66.5415 4.73001 66.6855 4.74201 66.8175 4.76601C66.9615 4.77801 67.0935 4.80201 67.2135 4.83801L67.1775 6.17002C66.9015 6.07402 66.5835 6.02601 66.2235 6.02601C65.5995 6.02601 65.0955 6.16402 64.7115 6.44002C64.3395 6.71602 64.0635 7.07001 63.8835 7.50201C63.7155 7.92201 63.6315 8.36601 63.6315 8.83401V14H62.1735Z" fill="white" fill-opacity="0.85"/>
<path d="M79.0404 14.144C77.8164 14.144 76.7604 13.88 75.8724 13.352C74.9844 12.824 74.3004 12.068 73.8204 11.084C73.3404 10.1 73.1004 8.93001 73.1004 7.57401C73.1004 6.21801 73.3404 5.05402 73.8204 4.08202C74.3004 3.11002 74.9844 2.36001 75.8724 1.83201C76.7604 1.30401 77.8164 1.04001 79.0404 1.04001C79.9164 1.04001 80.7264 1.17801 81.4704 1.45401C82.2144 1.71801 82.8564 2.12002 83.3964 2.66002L82.8384 3.79401C82.2264 3.26601 81.6204 2.88802 81.0204 2.66002C80.4204 2.43202 79.7664 2.31801 79.0584 2.31801C77.6544 2.31801 76.5624 2.77401 75.7824 3.68601C75.0144 4.59801 74.6304 5.89401 74.6304 7.57401C74.6304 9.26602 75.0144 10.574 75.7824 11.498C76.5504 12.41 77.6424 12.866 79.0584 12.866C79.7664 12.866 80.4204 12.752 81.0204 12.524C81.6204 12.296 82.2264 11.918 82.8384 11.39L83.3964 12.524C82.8564 13.064 82.2144 13.472 81.4704 13.748C80.7264 14.012 79.9164 14.144 79.0404 14.144Z" fill="white" fill-opacity="0.85"/>
<path d="M85.693 14V4.94601H87.151V14H85.693ZM85.549 1.11201H87.331V2.76801H85.549V1.11201Z" fill="white" fill-opacity="0.85"/>
<path d="M89.9821 14V7.48401C89.9821 7.06401 89.9701 6.64401 89.9461 6.22401C89.9341 5.79201 89.8981 5.36601 89.8381 4.94601H91.2241L91.4221 7.17801L91.2241 7.12401C91.3921 6.33201 91.7521 5.73801 92.3041 5.34201C92.8681 4.93401 93.4981 4.73001 94.1941 4.73001C94.3501 4.73001 94.4941 4.74201 94.6261 4.76601C94.7701 4.77801 94.9021 4.80201 95.0221 4.83801L94.9861 6.17002C94.7101 6.07402 94.3921 6.02601 94.0321 6.02601C93.4081 6.02601 92.9041 6.16402 92.5201 6.44002C92.1481 6.71602 91.8721 7.07001 91.6921 7.50201C91.5241 7.92201 91.4401 8.36601 91.4401 8.83401V14H89.9821Z" fill="white" fill-opacity="0.85"/>
<path d="M100.126 14.126C99.2378 14.126 98.4698 13.934 97.8218 13.55C97.1738 13.166 96.6698 12.626 96.3098 11.93C95.9618 11.234 95.7878 10.412 95.7878 9.46402C95.7878 8.52802 95.9678 7.70601 96.3278 6.99801C96.6878 6.27801 97.1978 5.72001 97.8578 5.32401C98.5178 4.92801 99.2978 4.73001 100.198 4.73001C100.81 4.73001 101.398 4.83801 101.962 5.05401C102.538 5.25801 103.012 5.54601 103.384 5.91801L102.898 6.99801C102.454 6.65001 102.016 6.39201 101.584 6.22401C101.164 6.04401 100.726 5.95401 100.27 5.95401C99.3578 5.95401 98.6318 6.26002 98.0918 6.87201C97.5638 7.48401 97.2998 8.34802 97.2998 9.46402C97.2998 10.568 97.5638 11.42 98.0918 12.02C98.6198 12.62 99.3458 12.92 100.27 12.92C100.714 12.92 101.152 12.836 101.584 12.668C102.016 12.488 102.454 12.224 102.898 11.876L103.384 12.956C103 13.316 102.514 13.604 101.926 13.82C101.35 14.024 100.75 14.126 100.126 14.126Z" fill="white" fill-opacity="0.85"/>
<path d="M105.24 14V0.752014H106.698V14H105.24Z" fill="white" fill-opacity="0.85"/>
<path d="M116.945 12.92C116.549 13.292 116.039 13.586 115.415 13.802C114.803 14.018 114.173 14.126 113.525 14.126C112.589 14.126 111.779 13.94 111.095 13.568C110.423 13.196 109.901 12.662 109.529 11.966C109.169 11.258 108.989 10.418 108.989 9.44601C108.989 8.51001 109.169 7.68801 109.529 6.98001C109.889 6.27201 110.387 5.72001 111.023 5.32401C111.671 4.92801 112.415 4.73001 113.255 4.73001C114.059 4.73001 114.749 4.91002 115.325 5.27002C115.901 5.61802 116.339 6.12201 116.639 6.78201C116.951 7.44201 117.107 8.23401 117.107 9.15801V9.42801H110.267V8.47401H116.279L115.811 9.14001C115.835 8.08401 115.625 7.27401 115.181 6.71001C114.749 6.14601 114.113 5.86402 113.273 5.86402C112.397 5.86402 111.707 6.17601 111.203 6.80001C110.711 7.41201 110.465 8.26401 110.465 9.35601C110.465 10.532 110.723 11.42 111.239 12.02C111.767 12.62 112.535 12.92 113.543 12.92C114.071 12.92 114.575 12.836 115.055 12.668C115.547 12.488 116.015 12.218 116.459 11.858L116.945 12.92Z" fill="white" fill-opacity="0.85"/>
</svg>
