<svg width="43" height="20" viewBox="0 0 43 20" fill="none" xmlns="http://www.w3.org/2000/svg">
<path d="M12.94 0.760031V15H10.38V8.82003H3.08004V15H0.540039V0.760031H3.08004V6.72003H10.38V0.760031H12.94Z" fill="white"/>
<path d="M24.6883 10.08H17.7283C17.7817 11.16 18.0483 11.96 18.5283 12.48C19.0217 12.9867 19.7483 13.24 20.7083 13.24C21.815 13.24 22.8417 12.88 23.7883 12.16L24.5083 13.88C24.0283 14.2667 23.435 14.58 22.7283 14.82C22.035 15.0467 21.3283 15.16 20.6083 15.16C18.955 15.16 17.655 14.6934 16.7083 13.76C15.7617 12.8267 15.2883 11.5467 15.2883 9.92003C15.2883 8.89336 15.495 7.98003 15.9083 7.18003C16.3217 6.38003 16.9017 5.76003 17.6483 5.32003C18.395 4.8667 19.2417 4.64003 20.1883 4.64003C21.575 4.64003 22.6683 5.09336 23.4683 6.00003C24.2817 6.89336 24.6883 8.1267 24.6883 9.70003V10.08ZM20.2483 6.44003C19.5817 6.44003 19.035 6.64003 18.6083 7.04003C18.195 7.4267 17.9283 7.99336 17.8083 8.74003H22.5083C22.4283 7.98003 22.195 7.4067 21.8083 7.02003C21.435 6.63336 20.915 6.44003 20.2483 6.44003Z" fill="white"/>
<path d="M26.8054 0.280029H29.2854V15H26.8054V0.280029Z" fill="white"/>
<path d="M37.7802 4.64003C38.6469 4.64003 39.4135 4.8667 40.0802 5.32003C40.7602 5.76003 41.2869 6.3867 41.6602 7.20003C42.0469 8.00003 42.2402 8.92003 42.2402 9.96003C42.2402 11 42.0535 11.9134 41.6802 12.7C41.3069 13.4867 40.7802 14.0934 40.1002 14.52C39.4335 14.9467 38.6602 15.16 37.7802 15.16C37.0469 15.16 36.3935 15.0067 35.8202 14.7C35.2469 14.38 34.8069 13.94 34.5002 13.38V19.32H32.0202V7.76003C32.0202 6.69336 31.9669 5.74003 31.8602 4.90003H34.2002L34.4002 6.64003C34.6669 6.01336 35.1002 5.5267 35.7002 5.18003C36.3002 4.82003 36.9935 4.64003 37.7802 4.64003ZM37.1002 13.2C37.9402 13.2 38.5869 12.92 39.0402 12.36C39.4935 11.8 39.7202 11 39.7202 9.96003C39.7202 8.9067 39.4935 8.0867 39.0402 7.50003C38.5869 6.90003 37.9469 6.60003 37.1202 6.60003C36.2669 6.60003 35.6135 6.8867 35.1602 7.46003C34.7069 8.03336 34.4802 8.85336 34.4802 9.92003C34.4802 10.9734 34.7069 11.7867 35.1602 12.36C35.6135 12.92 36.2602 13.2 37.1002 13.2Z" fill="white"/>
</svg>
