<svg width="65" height="20" viewBox="0 0 65 20" fill="none" xmlns="http://www.w3.org/2000/svg">
<path d="M12.26 15.0001H9.54004L7.72004 10.2601C7.56004 9.82007 7.31337 9.5134 6.98004 9.34007C6.64671 9.16674 6.21337 9.08007 5.68004 9.08007H3.10004V15.0001H0.540039V0.760069H6.64004C8.25337 0.760069 9.48004 1.1134 10.32 1.82007C11.16 2.52674 11.58 3.54007 11.58 4.86007C11.58 5.80673 11.3267 6.6134 10.82 7.28007C10.3267 7.9334 9.62004 8.40007 8.70004 8.68007C9.54004 8.8534 10.1467 9.44007 10.52 10.4401L12.26 15.0001ZM6.28004 7.08007C7.25337 7.08007 7.97337 6.90007 8.44004 6.54007C8.90671 6.18007 9.14004 5.6334 9.14004 4.90007C9.14004 4.18007 8.90671 3.64673 8.44004 3.30007C7.98671 2.94007 7.26671 2.76007 6.28004 2.76007H3.06004V7.08007H6.28004Z" fill="white"/>
<path d="M23.243 10.0801H16.283C16.3363 11.1601 16.603 11.9601 17.083 12.4801C17.5763 12.9867 18.303 13.2401 19.263 13.2401C20.3697 13.2401 21.3963 12.8801 22.343 12.1601L23.063 13.8801C22.583 14.2667 21.9897 14.5801 21.283 14.8201C20.5897 15.0467 19.883 15.1601 19.163 15.1601C17.5097 15.1601 16.2097 14.6934 15.263 13.7601C14.3163 12.8267 13.843 11.5467 13.843 9.92007C13.843 8.8934 14.0497 7.98007 14.463 7.18007C14.8763 6.38007 15.4563 5.76007 16.203 5.32007C16.9497 4.86674 17.7963 4.64007 18.743 4.64007C20.1297 4.64007 21.223 5.0934 22.023 6.00007C22.8363 6.8934 23.243 8.12674 23.243 9.70007V10.0801ZM18.803 6.44007C18.1363 6.44007 17.5897 6.64007 17.163 7.04007C16.7497 7.42673 16.483 7.9934 16.363 8.74007H21.063C20.983 7.98007 20.7497 7.40674 20.363 7.02007C19.9897 6.6334 19.4697 6.44007 18.803 6.44007Z" fill="white"/>
<path d="M35.12 4.90007V14.6801C35.12 16.2534 34.6867 17.4467 33.82 18.2601C32.9534 19.0734 31.68 19.4801 30 19.4801C28.44 19.4801 27.0667 19.1534 25.88 18.5001L26.28 16.6001C27.5067 17.2401 28.7267 17.5601 29.94 17.5601C31.74 17.5601 32.64 16.6667 32.64 14.8801V12.8801C32.3334 13.4267 31.8867 13.8734 31.3 14.2201C30.7134 14.5534 30.0534 14.7201 29.32 14.7201C28.44 14.7201 27.6534 14.5134 26.96 14.1001C26.28 13.6734 25.7467 13.0801 25.36 12.3201C24.9867 11.5467 24.8 10.6667 24.8 9.68007C24.8 8.6934 24.9867 7.82007 25.36 7.06007C25.7467 6.28673 26.28 5.6934 26.96 5.28007C27.6534 4.8534 28.44 4.64007 29.32 4.64007C30.0667 4.64007 30.7267 4.80007 31.3 5.12007C31.8867 5.42673 32.3334 5.86007 32.64 6.42007V4.90007H35.12ZM29.98 12.7601C30.8067 12.7601 31.4534 12.4867 31.92 11.9401C32.4 11.3934 32.64 10.6401 32.64 9.68007C32.64 8.72007 32.4067 7.96673 31.94 7.42007C31.4734 6.8734 30.82 6.60007 29.98 6.60007C29.1534 6.60007 28.5 6.8734 28.02 7.42007C27.5534 7.96673 27.32 8.72007 27.32 9.68007C27.32 10.6401 27.5534 11.3934 28.02 11.9401C28.5 12.4867 29.1534 12.7601 29.98 12.7601Z" fill="white"/>
<path d="M37.821 4.90007H40.301V15.0001H37.821V4.90007ZM40.441 0.320068V2.78007H37.661V0.320068H40.441Z" fill="white"/>
<path d="M47.6158 15.1601C46.5891 15.1601 45.6825 14.9467 44.8958 14.5201C44.1225 14.0934 43.5225 13.4867 43.0958 12.7001C42.6825 11.9001 42.4758 10.9667 42.4758 9.90007C42.4758 8.8334 42.6825 7.90673 43.0958 7.12007C43.5225 6.32007 44.1225 5.70673 44.8958 5.28007C45.6825 4.8534 46.5891 4.64007 47.6158 4.64007C48.6292 4.64007 49.5225 4.8534 50.2958 5.28007C51.0692 5.70673 51.6625 6.32007 52.0758 7.12007C52.5025 7.90673 52.7158 8.8334 52.7158 9.90007C52.7158 10.9667 52.5025 11.9001 52.0758 12.7001C51.6625 13.4867 51.0692 14.0934 50.2958 14.5201C49.5225 14.9467 48.6292 15.1601 47.6158 15.1601ZM47.5958 13.2001C48.4492 13.2001 49.0958 12.9267 49.5358 12.3801C49.9892 11.8201 50.2158 10.9934 50.2158 9.90007C50.2158 8.82007 49.9892 8.00007 49.5358 7.44007C49.0825 6.86673 48.4425 6.58007 47.6158 6.58007C46.7758 6.58007 46.1292 6.86673 45.6758 7.44007C45.2225 8.00007 44.9958 8.82007 44.9958 9.90007C44.9958 10.9934 45.2158 11.8201 45.6558 12.3801C46.1092 12.9267 46.7558 13.2001 47.5958 13.2001Z" fill="white"/>
<path d="M60.6518 4.64007C63.0651 4.64007 64.2718 6.02673 64.2718 8.80007V15.0001H61.7718V8.92007C61.7718 8.12007 61.6184 7.54007 61.3118 7.18007C61.0051 6.80674 60.5318 6.62007 59.8918 6.62007C59.1318 6.62007 58.5184 6.86673 58.0518 7.36007C57.5851 7.84007 57.3518 8.48007 57.3518 9.28007V15.0001H54.8718V7.76007C54.8718 6.6934 54.8184 5.74007 54.7118 4.90007H57.0518L57.2318 6.56007C57.5784 5.94673 58.0451 5.4734 58.6318 5.14007C59.2318 4.80674 59.9051 4.64007 60.6518 4.64007Z" fill="white"/>
</svg>
