<svg width="106" height="24" viewBox="0 0 106 24" fill="none" xmlns="http://www.w3.org/2000/svg">
<path d="M5.85596 3.45594H0.287964V0.911943H14.568V3.45594H8.97596V17.9999H5.85596V3.45594Z" fill="white"/>
<path d="M21.1209 5.59194C21.5849 5.59194 21.9849 5.65594 22.3209 5.78394L22.2969 8.51994C21.7849 8.31194 21.2569 8.20794 20.7129 8.20794C19.6889 8.20794 18.9049 8.50394 18.3609 9.09594C17.8329 9.68794 17.5689 10.4719 17.5689 11.4479V17.9999H14.5929V9.31194C14.5929 8.03194 14.5289 6.88794 14.4009 5.87994H17.2089L17.4489 8.01594C17.7529 7.23194 18.2329 6.63194 18.8889 6.21594C19.5449 5.79994 20.2889 5.59194 21.1209 5.59194Z" fill="white"/>
<path d="M35.349 5.87994V17.9999H32.397V16.0559C32.029 16.7279 31.501 17.2559 30.813 17.6399C30.125 18.0079 29.341 18.1919 28.461 18.1919C27.405 18.1919 26.469 17.9359 25.653 17.4239C24.837 16.9119 24.205 16.1839 23.757 15.2399C23.309 14.2959 23.085 13.1999 23.085 11.9519C23.085 10.7039 23.309 9.59994 23.757 8.63994C24.221 7.66394 24.861 6.91194 25.677 6.38394C26.493 5.83994 27.421 5.56794 28.461 5.56794C29.341 5.56794 30.125 5.75994 30.813 6.14394C31.501 6.51194 32.029 7.03194 32.397 7.70394V5.87994H35.349ZM29.277 15.8399C30.269 15.8399 31.037 15.4959 31.581 14.8079C32.125 14.1199 32.397 13.1519 32.397 11.9039C32.397 10.6239 32.125 9.63994 31.581 8.95194C31.037 8.26394 30.261 7.91994 29.253 7.91994C28.261 7.91994 27.485 8.27994 26.925 8.99994C26.381 9.70394 26.109 10.6879 26.109 11.9519C26.109 13.1999 26.381 14.1599 26.925 14.8319C27.485 15.5039 28.269 15.8399 29.277 15.8399Z" fill="white"/>
<path d="M44.3523 2.71194C43.0563 2.71194 42.4083 3.42394 42.4083 4.84794V5.87994H45.1203V8.13594H42.4083V17.9999H39.4083V8.13594H37.1043V5.87994H39.4083V4.70394C39.4083 3.26394 39.7683 2.15994 40.4883 1.39194C41.2243 0.607943 42.2723 0.215942 43.6323 0.215942C44.3843 0.215942 45.0163 0.311943 45.5283 0.503943V2.87994C45.0803 2.76794 44.6883 2.71194 44.3523 2.71194Z" fill="white"/>
<path d="M58.9037 5.87994V17.9999H55.9517V16.0559C55.5837 16.7279 55.0557 17.2559 54.3677 17.6399C53.6797 18.0079 52.8957 18.1919 52.0157 18.1919C50.9597 18.1919 50.0237 17.9359 49.2077 17.4239C48.3917 16.9119 47.7597 16.1839 47.3117 15.2399C46.8637 14.2959 46.6397 13.1999 46.6397 11.9519C46.6397 10.7039 46.8637 9.59994 47.3117 8.63994C47.7757 7.66394 48.4157 6.91194 49.2317 6.38394C50.0477 5.83994 50.9757 5.56794 52.0157 5.56794C52.8957 5.56794 53.6797 5.75994 54.3677 6.14394C55.0557 6.51194 55.5837 7.03194 55.9517 7.70394V5.87994H58.9037ZM52.8317 15.8399C53.8237 15.8399 54.5917 15.4959 55.1357 14.8079C55.6797 14.1199 55.9517 13.1519 55.9517 11.9039C55.9517 10.6239 55.6797 9.63994 55.1357 8.95194C54.5917 8.26394 53.8157 7.91994 52.8077 7.91994C51.8157 7.91994 51.0397 8.27994 50.4797 8.99994C49.9357 9.70394 49.6637 10.6879 49.6637 11.9519C49.6637 13.1999 49.9357 14.1599 50.4797 14.8319C51.0397 15.5039 51.8237 15.8399 52.8317 15.8399Z" fill="white"/>
<path d="M62.171 0.335942H65.147V17.9999H62.171V0.335942Z" fill="white"/>
<path d="M80.1408 5.87994V17.6159C80.1408 19.5039 79.6208 20.9359 78.5808 21.9119C77.5408 22.8879 76.0128 23.3759 73.9968 23.3759C72.1248 23.3759 70.4768 22.9839 69.0528 22.1999L69.5328 19.9199C71.0048 20.6879 72.4688 21.0719 73.9248 21.0719C76.0848 21.0719 77.1648 19.9999 77.1648 17.8559V15.4559C76.7968 16.1119 76.2608 16.6479 75.5568 17.0639C74.8528 17.4639 74.0608 17.6639 73.1808 17.6639C72.1248 17.6639 71.1808 17.4159 70.3488 16.9199C69.5328 16.4079 68.8928 15.6959 68.4288 14.7839C67.9808 13.8559 67.7568 12.7999 67.7568 11.6159C67.7568 10.4319 67.9808 9.38394 68.4288 8.47194C68.8928 7.54394 69.5328 6.83194 70.3488 6.33594C71.1808 5.82394 72.1248 5.56794 73.1808 5.56794C74.0768 5.56794 74.8688 5.75994 75.5568 6.14394C76.2608 6.51194 76.7968 7.03194 77.1648 7.70394V5.87994H80.1408ZM73.9728 15.3119C74.9648 15.3119 75.7408 14.9839 76.3008 14.3279C76.8768 13.6719 77.1648 12.7679 77.1648 11.6159C77.1648 10.4639 76.8848 9.55994 76.3248 8.90394C75.7648 8.24794 74.9808 7.91994 73.9728 7.91994C72.9808 7.91994 72.1968 8.24794 71.6208 8.90394C71.0608 9.55994 70.7808 10.4639 70.7808 11.6159C70.7808 12.7679 71.0608 13.6719 71.6208 14.3279C72.1968 14.9839 72.9808 15.3119 73.9728 15.3119Z" fill="white"/>
<path d="M94.974 5.87994V17.9999H92.022V16.0559C91.654 16.7279 91.126 17.2559 90.438 17.6399C89.75 18.0079 88.966 18.1919 88.086 18.1919C87.03 18.1919 86.094 17.9359 85.278 17.4239C84.462 16.9119 83.83 16.1839 83.382 15.2399C82.934 14.2959 82.71 13.1999 82.71 11.9519C82.71 10.7039 82.934 9.59994 83.382 8.63994C83.846 7.66394 84.486 6.91194 85.302 6.38394C86.118 5.83994 87.046 5.56794 88.086 5.56794C88.966 5.56794 89.75 5.75994 90.438 6.14394C91.126 6.51194 91.654 7.03194 92.022 7.70394V5.87994H94.974ZM88.902 15.8399C89.894 15.8399 90.662 15.4959 91.206 14.8079C91.75 14.1199 92.022 13.1519 92.022 11.9039C92.022 10.6239 91.75 9.63994 91.206 8.95194C90.662 8.26394 89.886 7.91994 88.878 7.91994C87.886 7.91994 87.11 8.27994 86.55 8.99994C86.006 9.70394 85.734 10.6879 85.734 11.9519C85.734 13.1999 86.006 14.1599 86.55 14.8319C87.11 15.5039 87.894 15.8399 88.902 15.8399Z" fill="white"/>
<path d="M104.769 5.59194C105.233 5.59194 105.633 5.65594 105.969 5.78394L105.945 8.51994C105.433 8.31194 104.905 8.20794 104.361 8.20794C103.337 8.20794 102.553 8.50394 102.009 9.09594C101.481 9.68794 101.217 10.4719 101.217 11.4479V17.9999H98.2413V9.31194C98.2413 8.03194 98.1773 6.88794 98.0493 5.87994H100.857L101.097 8.01594C101.401 7.23194 101.881 6.63194 102.537 6.21594C103.193 5.79994 103.937 5.59194 104.769 5.59194Z" fill="white"/>
</svg>
