<svg width="520" height="36" viewBox="0 0 520 36" fill="none" xmlns="http://www.w3.org/2000/svg">
<path d="M39.492 1.36803L30.42 27H26.64L20.196 8.56803L13.68 27H9.90001L0.864014 1.36803H5.58001L11.988 20.484L18.648 1.36803H21.96L28.476 20.628L35.028 1.36803H39.492Z" fill="white"/>
<path d="M53.1762 8.35203C57.5202 8.35203 59.6922 10.848 59.6922 15.84V27H55.1922V16.056C55.1922 14.616 54.9162 13.572 54.3642 12.924C53.8122 12.252 52.9602 11.916 51.8082 11.916C50.4402 11.916 49.3362 12.36 48.4962 13.248C47.6562 14.112 47.2362 15.264 47.2362 16.704V27H42.7722V0.504028H47.2362V11.448C47.8602 10.464 48.6882 9.70803 49.7202 9.18003C50.7522 8.62803 51.9042 8.35203 53.1762 8.35203Z" fill="white"/>
<path d="M81.8516 8.82003V27H77.4236V24.084C76.8716 25.092 76.0796 25.884 75.0476 26.46C74.0156 27.012 72.8396 27.288 71.5196 27.288C69.9356 27.288 68.5316 26.904 67.3076 26.136C66.0836 25.368 65.1356 24.276 64.4636 22.86C63.7916 21.444 63.4556 19.8 63.4556 17.928C63.4556 16.056 63.7916 14.4 64.4636 12.96C65.1596 11.496 66.1196 10.368 67.3436 9.57603C68.5676 8.76003 69.9596 8.35203 71.5196 8.35203C72.8396 8.35203 74.0156 8.64003 75.0476 9.21603C76.0796 9.76803 76.8716 10.548 77.4236 11.556V8.82003H81.8516ZM72.7436 23.76C74.2316 23.76 75.3836 23.244 76.1996 22.212C77.0156 21.18 77.4236 19.728 77.4236 17.856C77.4236 15.936 77.0156 14.46 76.1996 13.428C75.3836 12.396 74.2196 11.88 72.7076 11.88C71.2196 11.88 70.0556 12.42 69.2156 13.5C68.3996 14.556 67.9916 16.032 67.9916 17.928C67.9916 19.8 68.3996 21.24 69.2156 22.248C70.0556 23.256 71.2316 23.76 72.7436 23.76Z" fill="white"/>
<path d="M92.4767 12.204V20.34C92.4767 22.476 93.4727 23.544 95.4647 23.544C96.0167 23.544 96.6167 23.448 97.2647 23.256V26.82C96.4727 27.108 95.5127 27.252 94.3847 27.252C92.3207 27.252 90.7367 26.676 89.6327 25.524C88.5287 24.372 87.9767 22.716 87.9767 20.556V12.204H84.4847V8.82003H87.9767V4.39203L92.4767 2.88003V8.82003H97.3007V12.204H92.4767Z" fill="white"/>
<path d="M118.516 27.288C116.668 27.288 115.036 26.904 113.62 26.136C112.228 25.368 111.148 24.276 110.38 22.86C109.636 21.42 109.264 19.74 109.264 17.82C109.264 15.9 109.636 14.232 110.38 12.816C111.148 11.376 112.228 10.272 113.62 9.50403C115.036 8.73603 116.668 8.35203 118.516 8.35203C120.34 8.35203 121.948 8.73603 123.34 9.50403C124.732 10.272 125.8 11.376 126.544 12.816C127.312 14.232 127.696 15.9 127.696 17.82C127.696 19.74 127.312 21.42 126.544 22.86C125.8 24.276 124.732 25.368 123.34 26.136C121.948 26.904 120.34 27.288 118.516 27.288ZM118.48 23.76C120.016 23.76 121.18 23.268 121.972 22.284C122.788 21.276 123.196 19.788 123.196 17.82C123.196 15.876 122.788 14.4 121.972 13.392C121.156 12.36 120.004 11.844 118.516 11.844C117.004 11.844 115.84 12.36 115.024 13.392C114.208 14.4 113.8 15.876 113.8 17.82C113.8 19.788 114.196 21.276 114.988 22.284C115.804 23.268 116.968 23.76 118.48 23.76Z" fill="white"/>
<path d="M148.137 8.82003V27H143.745V24.192C143.169 25.2 142.401 25.968 141.441 26.496C140.481 27.024 139.377 27.288 138.129 27.288C133.689 27.288 131.469 24.792 131.469 19.8V8.82003H135.933V19.836C135.933 21.156 136.197 22.128 136.725 22.752C137.277 23.376 138.117 23.688 139.245 23.688C140.565 23.688 141.621 23.256 142.413 22.392C143.205 21.528 143.601 20.376 143.601 18.936V8.82003H148.137Z" fill="white"/>
<path d="M162.814 8.38803C163.51 8.38803 164.11 8.48403 164.614 8.67603L164.578 12.78C163.81 12.468 163.018 12.312 162.202 12.312C160.666 12.312 159.49 12.756 158.674 13.644C157.882 14.532 157.486 15.708 157.486 17.172V27H153.022V13.968C153.022 12.048 152.926 10.332 152.734 8.82003H156.946L157.306 12.024C157.762 10.848 158.482 9.94803 159.466 9.32403C160.45 8.70003 161.566 8.38803 162.814 8.38803Z" fill="white"/>
<path d="M185.243 27.288C183.347 27.288 181.703 26.904 180.311 26.136C178.919 25.368 177.851 24.288 177.107 22.896C176.363 21.48 175.991 19.824 175.991 17.928C175.991 16.032 176.375 14.364 177.143 12.924C177.935 11.484 179.039 10.368 180.455 9.57603C181.895 8.76003 183.551 8.35203 185.423 8.35203C186.719 8.35203 187.967 8.55603 189.167 8.96403C190.391 9.37203 191.363 9.93603 192.083 10.656L190.823 13.824C190.055 13.2 189.239 12.732 188.375 12.42C187.511 12.084 186.659 11.916 185.819 11.916C184.187 11.916 182.915 12.432 182.003 13.464C181.091 14.472 180.635 15.936 180.635 17.856C180.635 19.776 181.079 21.24 181.967 22.248C182.879 23.256 184.163 23.76 185.819 23.76C186.659 23.76 187.511 23.592 188.375 23.256C189.239 22.92 190.055 22.44 190.823 21.816L192.083 24.984C191.315 25.704 190.319 26.268 189.095 26.676C187.871 27.084 186.587 27.288 185.243 27.288Z" fill="white"/>
<path d="M211.664 8.82003V27H207.272V24.192C206.696 25.2 205.928 25.968 204.968 26.496C204.008 27.024 202.904 27.288 201.656 27.288C197.216 27.288 194.996 24.792 194.996 19.8V8.82003H199.46V19.836C199.46 21.156 199.724 22.128 200.252 22.752C200.804 23.376 201.644 23.688 202.772 23.688C204.092 23.688 205.148 23.256 205.94 22.392C206.732 21.528 207.128 20.376 207.128 18.936V8.82003H211.664Z" fill="white"/>
<path d="M223.21 27.288C219.922 27.288 217.306 26.52 215.362 24.984L216.622 21.816C218.566 23.256 220.786 23.976 223.282 23.976C224.362 23.976 225.19 23.796 225.766 23.436C226.366 23.076 226.666 22.572 226.666 21.924C226.666 21.372 226.462 20.94 226.054 20.628C225.646 20.292 224.95 20.004 223.966 19.764L220.942 19.08C217.63 18.36 215.974 16.668 215.974 14.004C215.974 12.9 216.286 11.928 216.91 11.088C217.534 10.224 218.41 9.55203 219.538 9.07203C220.666 8.59203 221.974 8.35203 223.462 8.35203C224.758 8.35203 226.006 8.55603 227.206 8.96403C228.406 9.34803 229.462 9.91203 230.374 10.656L229.042 13.716C227.218 12.372 225.346 11.7 223.426 11.7C222.394 11.7 221.59 11.892 221.014 12.276C220.438 12.66 220.15 13.188 220.15 13.86C220.15 14.388 220.318 14.808 220.654 15.12C221.014 15.432 221.614 15.696 222.454 15.912L225.55 16.596C227.35 17.004 228.658 17.64 229.474 18.504C230.314 19.344 230.734 20.448 230.734 21.816C230.734 23.496 230.062 24.828 228.718 25.812C227.374 26.796 225.538 27.288 223.21 27.288Z" fill="white"/>
<path d="M240.133 12.204V20.34C240.133 22.476 241.129 23.544 243.121 23.544C243.673 23.544 244.273 23.448 244.921 23.256V26.82C244.129 27.108 243.169 27.252 242.041 27.252C239.977 27.252 238.393 26.676 237.289 25.524C236.185 24.372 235.633 22.716 235.633 20.556V12.204H232.141V8.82003H235.633V4.39203L240.133 2.88003V8.82003H244.957V12.204H240.133Z" fill="white"/>
<path d="M256.294 27.288C254.446 27.288 252.814 26.904 251.398 26.136C250.006 25.368 248.926 24.276 248.158 22.86C247.414 21.42 247.042 19.74 247.042 17.82C247.042 15.9 247.414 14.232 248.158 12.816C248.926 11.376 250.006 10.272 251.398 9.50403C252.814 8.73603 254.446 8.35203 256.294 8.35203C258.118 8.35203 259.726 8.73603 261.118 9.50403C262.51 10.272 263.578 11.376 264.322 12.816C265.09 14.232 265.474 15.9 265.474 17.82C265.474 19.74 265.09 21.42 264.322 22.86C263.578 24.276 262.51 25.368 261.118 26.136C259.726 26.904 258.118 27.288 256.294 27.288ZM256.258 23.76C257.794 23.76 258.958 23.268 259.75 22.284C260.566 21.276 260.974 19.788 260.974 17.82C260.974 15.876 260.566 14.4 259.75 13.392C258.934 12.36 257.782 11.844 256.294 11.844C254.782 11.844 253.618 12.36 252.802 13.392C251.986 14.4 251.578 15.876 251.578 17.82C251.578 19.788 251.974 21.276 252.766 22.284C253.582 23.268 254.746 23.76 256.258 23.76Z" fill="white"/>
<path d="M290.81 8.35203C292.874 8.35203 294.41 8.97603 295.418 10.224C296.426 11.448 296.93 13.32 296.93 15.84V27H292.43V15.984C292.43 14.544 292.19 13.512 291.71 12.888C291.254 12.24 290.486 11.916 289.406 11.916C288.158 11.916 287.174 12.36 286.454 13.248C285.758 14.112 285.41 15.312 285.41 16.848V27H280.91V15.984C280.91 14.568 280.658 13.536 280.154 12.888C279.674 12.24 278.906 11.916 277.85 11.916C276.602 11.916 275.618 12.36 274.898 13.248C274.178 14.112 273.818 15.312 273.818 16.848V27H269.354V13.968C269.354 12.048 269.258 10.332 269.066 8.82003H273.278L273.602 11.7C274.13 10.62 274.886 9.79203 275.87 9.21603C276.878 8.64003 278.03 8.35203 279.326 8.35203C282.11 8.35203 283.922 9.50403 284.762 11.808C285.338 10.728 286.154 9.88803 287.21 9.28803C288.29 8.66403 289.49 8.35203 290.81 8.35203Z" fill="white"/>
<path d="M317.645 18.144H305.117C305.213 20.088 305.693 21.528 306.557 22.464C307.445 23.376 308.753 23.832 310.481 23.832C312.473 23.832 314.321 23.184 316.025 21.888L317.321 24.984C316.457 25.68 315.389 26.244 314.117 26.676C312.869 27.084 311.597 27.288 310.301 27.288C307.325 27.288 304.985 26.448 303.281 24.768C301.577 23.088 300.725 20.784 300.725 17.856C300.725 16.008 301.097 14.364 301.841 12.924C302.585 11.484 303.629 10.368 304.973 9.57603C306.317 8.76003 307.841 8.35203 309.545 8.35203C312.041 8.35203 314.009 9.16803 315.449 10.8C316.913 12.408 317.645 14.628 317.645 17.46V18.144ZM309.653 11.592C308.453 11.592 307.469 11.952 306.701 12.672C305.957 13.368 305.477 14.388 305.261 15.732H313.721C313.577 14.364 313.157 13.332 312.461 12.636C311.789 11.94 310.853 11.592 309.653 11.592Z" fill="white"/>
<path d="M331.248 8.38803C331.944 8.38803 332.544 8.48403 333.048 8.67603L333.012 12.78C332.244 12.468 331.452 12.312 330.636 12.312C329.1 12.312 327.924 12.756 327.108 13.644C326.316 14.532 325.92 15.708 325.92 17.172V27H321.456V13.968C321.456 12.048 321.36 10.332 321.168 8.82003H325.38L325.74 12.024C326.196 10.848 326.916 9.94803 327.9 9.32403C328.884 8.70003 330 8.38803 331.248 8.38803Z" fill="white"/>
<path d="M362.82 8.82003V27H358.392V24.084C357.84 25.092 357.048 25.884 356.016 26.46C354.984 27.012 353.808 27.288 352.488 27.288C350.904 27.288 349.5 26.904 348.276 26.136C347.052 25.368 346.104 24.276 345.432 22.86C344.76 21.444 344.424 19.8 344.424 17.928C344.424 16.056 344.76 14.4 345.432 12.96C346.128 11.496 347.088 10.368 348.312 9.57603C349.536 8.76003 350.928 8.35203 352.488 8.35203C353.808 8.35203 354.984 8.64003 356.016 9.21603C357.048 9.76803 357.84 10.548 358.392 11.556V8.82003H362.82ZM353.712 23.76C355.2 23.76 356.352 23.244 357.168 22.212C357.984 21.18 358.392 19.728 358.392 17.856C358.392 15.936 357.984 14.46 357.168 13.428C356.352 12.396 355.188 11.88 353.676 11.88C352.188 11.88 351.024 12.42 350.184 13.5C349.368 14.556 348.96 16.032 348.96 17.928C348.96 19.8 349.368 21.24 350.184 22.248C351.024 23.256 352.2 23.76 353.712 23.76Z" fill="white"/>
<path d="M377.513 8.38803C378.209 8.38803 378.809 8.48403 379.313 8.67603L379.277 12.78C378.509 12.468 377.717 12.312 376.901 12.312C375.365 12.312 374.189 12.756 373.373 13.644C372.581 14.532 372.185 15.708 372.185 17.172V27H367.721V13.968C367.721 12.048 367.625 10.332 367.433 8.82003H371.645L372.005 12.024C372.461 10.848 373.181 9.94803 374.165 9.32403C375.149 8.70003 376.265 8.38803 377.513 8.38803Z" fill="white"/>
<path d="M397.38 18.144H384.852C384.948 20.088 385.428 21.528 386.292 22.464C387.18 23.376 388.488 23.832 390.216 23.832C392.208 23.832 394.056 23.184 395.76 21.888L397.056 24.984C396.192 25.68 395.124 26.244 393.852 26.676C392.604 27.084 391.332 27.288 390.036 27.288C387.06 27.288 384.72 26.448 383.016 24.768C381.312 23.088 380.46 20.784 380.46 17.856C380.46 16.008 380.832 14.364 381.576 12.924C382.32 11.484 383.364 10.368 384.708 9.57603C386.052 8.76003 387.576 8.35203 389.28 8.35203C391.776 8.35203 393.744 9.16803 395.184 10.8C396.648 12.408 397.38 14.628 397.38 17.46V18.144ZM389.388 11.592C388.188 11.592 387.204 11.952 386.436 12.672C385.692 13.368 385.212 14.388 384.996 15.732H393.456C393.312 14.364 392.892 13.332 392.196 12.636C391.524 11.94 390.588 11.592 389.388 11.592Z" fill="white"/>
<path d="M417.729 27.288C414.441 27.288 411.825 26.52 409.881 24.984L411.141 21.816C413.085 23.256 415.305 23.976 417.801 23.976C418.881 23.976 419.709 23.796 420.285 23.436C420.885 23.076 421.185 22.572 421.185 21.924C421.185 21.372 420.981 20.94 420.573 20.628C420.165 20.292 419.469 20.004 418.485 19.764L415.461 19.08C412.149 18.36 410.493 16.668 410.493 14.004C410.493 12.9 410.805 11.928 411.429 11.088C412.053 10.224 412.929 9.55203 414.057 9.07203C415.185 8.59203 416.493 8.35203 417.981 8.35203C419.277 8.35203 420.525 8.55603 421.725 8.96403C422.925 9.34803 423.981 9.91203 424.893 10.656L423.561 13.716C421.737 12.372 419.865 11.7 417.945 11.7C416.913 11.7 416.109 11.892 415.533 12.276C414.957 12.66 414.669 13.188 414.669 13.86C414.669 14.388 414.837 14.808 415.173 15.12C415.533 15.432 416.133 15.696 416.973 15.912L420.069 16.596C421.869 17.004 423.177 17.64 423.993 18.504C424.833 19.344 425.253 20.448 425.253 21.816C425.253 23.496 424.581 24.828 423.237 25.812C421.893 26.796 420.057 27.288 417.729 27.288Z" fill="white"/>
<path d="M446.492 8.82003V27H442.064V24.084C441.512 25.092 440.72 25.884 439.688 26.46C438.656 27.012 437.48 27.288 436.16 27.288C434.576 27.288 433.172 26.904 431.948 26.136C430.724 25.368 429.776 24.276 429.104 22.86C428.432 21.444 428.096 19.8 428.096 17.928C428.096 16.056 428.432 14.4 429.104 12.96C429.8 11.496 430.76 10.368 431.984 9.57603C433.208 8.76003 434.6 8.35203 436.16 8.35203C437.48 8.35203 438.656 8.64003 439.688 9.21603C440.72 9.76803 441.512 10.548 442.064 11.556V8.82003H446.492ZM437.384 23.76C438.872 23.76 440.024 23.244 440.84 22.212C441.656 21.18 442.064 19.728 442.064 17.856C442.064 15.936 441.656 14.46 440.84 13.428C440.024 12.396 438.86 11.88 437.348 11.88C435.86 11.88 434.696 12.42 433.856 13.5C433.04 14.556 432.632 16.032 432.632 17.928C432.632 19.8 433.04 21.24 433.856 22.248C434.696 23.256 435.872 23.76 437.384 23.76Z" fill="white"/>
<path d="M468.601 8.82003L460.141 28.224C459.181 30.48 457.957 32.124 456.469 33.156C454.981 34.188 453.145 34.872 450.961 35.208L449.953 31.752C451.657 31.368 452.929 30.876 453.769 30.276C454.633 29.7 455.329 28.836 455.857 27.684L456.433 26.352L448.873 8.82003H453.589L458.809 21.888L464.137 8.82003H468.601Z" fill="white"/>
<path d="M470.94 8.82003H475.404V27H470.94V8.82003ZM475.656 0.57603V5.00403H470.652V0.57603H475.656Z" fill="white"/>
<path d="M490.731 8.35203C495.075 8.35203 497.247 10.848 497.247 15.84V27H492.747V16.056C492.747 14.616 492.471 13.572 491.919 12.924C491.367 12.252 490.515 11.916 489.363 11.916C487.995 11.916 486.891 12.36 486.051 13.248C485.211 14.112 484.791 15.264 484.791 16.704V27H480.327V13.968C480.327 12.048 480.231 10.332 480.039 8.82003H484.251L484.575 11.808C485.199 10.704 486.039 9.85203 487.095 9.25203C488.175 8.65203 489.387 8.35203 490.731 8.35203Z" fill="white"/>
<path d="M519.586 8.82003V26.424C519.586 29.256 518.806 31.404 517.246 32.868C515.686 34.332 513.394 35.064 510.37 35.064C507.562 35.064 505.09 34.476 502.954 33.3L503.674 29.88C505.882 31.032 508.078 31.608 510.262 31.608C513.502 31.608 515.122 30 515.122 26.784V23.184C514.57 24.168 513.766 24.972 512.71 25.596C511.654 26.196 510.466 26.496 509.146 26.496C507.562 26.496 506.146 26.124 504.898 25.38C503.674 24.612 502.714 23.544 502.018 22.176C501.346 20.784 501.01 19.2 501.01 17.424C501.01 15.648 501.346 14.076 502.018 12.708C502.714 11.316 503.674 10.248 504.898 9.50403C506.146 8.73603 507.562 8.35203 509.146 8.35203C510.49 8.35203 511.678 8.64003 512.71 9.21603C513.766 9.76803 514.57 10.548 515.122 11.556V8.82003H519.586ZM510.334 22.968C511.822 22.968 512.986 22.476 513.826 21.492C514.69 20.508 515.122 19.152 515.122 17.424C515.122 15.696 514.702 14.34 513.862 13.356C513.022 12.372 511.846 11.88 510.334 11.88C508.846 11.88 507.67 12.372 506.806 13.356C505.966 14.34 505.546 15.696 505.546 17.424C505.546 19.152 505.966 20.508 506.806 21.492C507.67 22.476 508.846 22.968 510.334 22.968Z" fill="white"/>
</svg>
